<svg width="64" height="65" viewBox="0 0 64 65" fill="none" xmlns="http://www.w3.org/2000/svg">
<g id="graphic/logo">
<path id="Vector" d="M34.8538 46.2339C35.0622 45.9286 35.1664 45.5464 35.1664 45.0882C35.1664 44.5744 35.0291 44.1594 34.7549 43.8435C34.4804 43.5273 34.0935 43.3279 33.5934 43.2445C33.3435 43.2099 32.5934 43.1924 31.3436 43.1924H28.9375V47.0672H31.2185C32.6976 47.0672 33.621 47.0046 33.9893 46.8797C34.3571 46.7547 34.6455 46.5397 34.8538 46.2339Z" fill="#262A2E"/>
<path id="Vector_2" d="M14.3652 49.8377H18.5316L16.4276 44.1714L14.3652 49.8377Z" fill="#262A2E"/>
<path id="Vector_3" d="M47.65 0.962891H37.7224H32.0818H16.35C7.33466 0.962891 0 8.29799 0 17.3133V48.6129C0 57.6279 7.33466 64.9628 16.35 64.9628H47.65C56.6655 64.9628 64 57.6279 64 48.6129V32.2326V26.4974V17.3133C64 8.29799 56.6655 0.962891 47.65 0.962891ZM20.8544 55.8792L19.5211 52.4105H13.4174L12.157 55.8792H8.88634L14.8339 40.6092H18.0942L24.2083 55.8792H20.8544ZM35.8953 55.8792L33.6663 52.5564C32.8745 51.369 32.3328 50.6207 32.0413 50.3117C31.7497 50.0029 31.4405 49.7908 31.1142 49.6766C30.7877 49.5616 30.2705 49.5045 29.5622 49.5045H28.9373V55.8792H25.8542V40.6092H32.3433C33.9749 40.6092 35.1607 40.7464 35.9007 41.0204C36.6398 41.2948 37.2318 41.7828 37.6765 42.4841C38.1206 43.1856 38.3431 43.9877 38.3431 44.8902C38.3431 46.036 38.0059 46.9822 37.3327 47.7285C36.659 48.475 35.6521 48.9458 34.312 49.1399C34.9786 49.5291 35.5291 49.9562 35.9631 50.4212C36.3968 50.8867 36.9818 51.7127 37.718 52.9003L39.5826 55.8792H35.8953ZM52.2903 43.1924H47.7697V55.8792H44.6865V43.1924H40.1556V40.6092H52.2903V43.1924ZM59.3287 29.393C57.1075 30.3442 54.6639 30.8727 52.0986 30.8727C41.9447 30.8727 33.6834 22.6114 33.6834 12.4572C33.6834 10.0478 34.1492 7.74548 34.9945 5.63439H47.65C54.0894 5.63439 59.3287 10.8737 59.3287 17.3133V29.393Z" fill="#262A2E"/>
</g>
</svg>
